<?xml version="1.0" encoding="UTF-8"?><svg id="a" xmlns="http://www.w3.org/2000/svg" viewBox="0 0 119.51 148.95"><path d="M63.15,148.95c-12.4,0-23.33-3.18-32.77-9.53-9.45-6.35-16.88-15.1-22.28-26.25C2.7,102.03,0,89.3,0,75c0-15.6,2.67-29,8.02-40.2,5.35-11.2,12.75-19.8,22.2-25.8S50.65,0,63.15,0c10.5,0,19.42,2.13,26.78,6.38,7.35,4.25,13.27,10.03,17.77,17.32,4.5,7.3,7.67,15.55,9.53,24.75,1.85,9.2,2.57,18.7,2.17,28.5H14.25l-.33-17.03,94,1-6.07,8.52c.3-6.5-.1-12.97-1.12-19.42-.81-5.1-3-9.38-5.85-14.77-2.85-5.4-6.83-9.75-11.93-13.05-5.1-3.3-11.65-4.95-19.65-4.95-10.2,0-18.7,2.62-25.5,7.88-6.8,5.25-11.88,12.05-15.23,20.4-3.35,8.35-5.02,14.28-5.02,23.77v7.35c0,10.9,1.67,20.7,5.02,29.4,3.35,8.7,8.4,13.6,15.15,18.7s15.22,7.65,25.42,7.65,19.07-2.57,25.73-7.72c6.65-5.15,10.62-10.72,11.92-20.72h18.6c-1.5,9.5-4.83,17.6-9.97,24.3-5.15,6.7-11.68,11.83-19.58,15.38-7.9,3.55-16.8,5.33-26.7,5.33Z"/></svg>