<?xml version="1.0" standalone="no"?>
<!DOCTYPE svg PUBLIC "-//W3C//DTD SVG 20010904//EN"
 "http://www.w3.org/TR/2001/REC-SVG-20010904/DTD/svg10.dtd">
<svg version="1.0" xmlns="http://www.w3.org/2000/svg"
 width="1192.000000pt" height="1192.000000pt" viewBox="0 0 1192.000000 1192.000000"
 preserveAspectRatio="xMidYMid meet">
<metadata>
Created by potrace 1.14, written by Peter Selinger 2001-2017
</metadata>
<g transform="translate(0.000000,1192.000000) scale(0.100000,-0.100000)"
fill="#000000" stroke="none">
<path d="M5938 11915 c-2 -2 -50 -6 -108 -10 -58 -3 -118 -8 -135 -10 -16 -2
-56 -6 -88 -9 -32 -3 -62 -8 -67 -11 -6 -4 -10 -1 -10 6 0 8 -4 8 -13 1 -7 -6
-35 -13 -62 -16 -58 -6 -120 -15 -155 -22 -14 -2 -41 -7 -60 -10 -60 -10 -167
-33 -270 -59 -36 -8 -72 -17 -80 -19 -8 -2 -35 -9 -60 -16 -25 -7 -49 -13 -55
-14 -19 -5 -130 -37 -145 -43 -8 -4 -17 -7 -20 -8 -25 -6 -147 -49 -155 -55
-5 -3 -30 -13 -55 -20 -25 -8 -56 -21 -70 -29 -13 -9 -27 -15 -30 -15 -6 2
-45 -12 -75 -26 -11 -5 -42 -19 -70 -31 -107 -47 -343 -168 -415 -214 -22 -14
-42 -25 -44 -25 -5 0 -137 -86 -153 -99 -7 -6 -17 -11 -23 -11 -5 0 -10 -4
-10 -10 0 -5 -5 -10 -10 -10 -11 0 -60 -33 -94 -62 -11 -10 -23 -18 -27 -18
-4 0 -14 -6 -21 -13 -7 -7 -51 -41 -97 -76 -87 -66 -115 -89 -163 -131 -15
-14 -49 -43 -75 -65 -72 -60 -331 -321 -393 -395 -30 -36 -60 -69 -67 -75 -6
-5 -39 -46 -74 -90 -34 -44 -66 -81 -71 -83 -4 -2 -8 -9 -8 -17 0 -7 -7 -18
-15 -25 -16 -13 -155 -207 -155 -216 0 -3 -9 -14 -20 -26 -11 -12 -26 -34 -32
-50 -7 -15 -16 -28 -20 -28 -5 0 -8 -7 -8 -15 0 -8 -4 -15 -8 -15 -5 0 -16
-15 -25 -32 -25 -49 -49 -90 -75 -126 -13 -17 -20 -32 -17 -32 4 0 -3 -12 -14
-26 -12 -15 -21 -32 -21 -40 0 -7 -3 -14 -8 -16 -4 -1 -20 -28 -36 -58 -57
-111 -160 -315 -161 -320 0 -3 -15 -36 -33 -73 -18 -38 -32 -72 -32 -76 0 -4
-10 -27 -21 -51 -12 -24 -22 -49 -24 -54 -1 -6 -7 -22 -12 -36 -6 -14 -19 -45
-28 -70 -9 -25 -23 -58 -30 -75 -7 -16 -20 -55 -30 -85 -9 -30 -20 -64 -25
-75 -24 -56 -121 -388 -115 -393 3 -3 1 -10 -4 -16 -7 -10 -32 -100 -32 -118
0 -4 -6 -25 -13 -45 -7 -21 -12 -46 -10 -55 1 -10 -1 -18 -5 -18 -4 0 -7 -8
-8 -17 0 -10 -14 -85 -31 -168 -32 -154 -47 -240 -57 -310 -3 -22 -8 -51 -10
-65 -2 -14 -7 -47 -10 -75 -3 -27 -8 -63 -11 -79 -3 -16 -7 -50 -9 -75 -2 -25
-5 -46 -5 -46 -1 0 -3 -20 -5 -45 -2 -25 -6 -65 -9 -90 -3 -25 -8 -83 -12
-130 -3 -47 -8 -101 -10 -120 -26 -222 -25 -1093 1 -1350 3 -30 8 -84 10 -120
2 -36 4 -65 5 -65 1 0 3 -13 4 -30 2 -16 7 -57 11 -90 4 -33 9 -80 10 -105 2
-25 4 -45 5 -45 3 0 9 -38 15 -90 7 -52 11 -83 20 -125 2 -13 7 -42 11 -64 3
-22 7 -43 9 -46 1 -3 6 -27 9 -54 4 -27 9 -53 11 -57 3 -4 7 -24 10 -45 4 -22
10 -54 15 -73 5 -19 7 -38 4 -43 -3 -4 0 -8 7 -8 7 0 10 -3 7 -6 -4 -3 -2 -20
3 -37 5 -18 12 -48 15 -67 3 -19 8 -38 11 -43 2 -4 6 -18 9 -30 20 -114 189
-637 249 -772 19 -43 39 -91 69 -165 28 -67 256 -531 266 -540 3 -3 30 -48 59
-100 103 -181 384 -592 455 -666 6 -6 22 -26 36 -44 14 -18 33 -42 43 -54 78
-90 132 -150 197 -217 41 -43 82 -86 91 -96 8 -10 59 -58 113 -108 54 -49 112
-103 130 -120 17 -16 50 -43 71 -60 22 -16 45 -34 50 -41 6 -6 31 -27 56 -46
26 -20 53 -40 60 -46 42 -35 177 -133 216 -157 10 -5 26 -18 37 -27 11 -10 26
-18 33 -18 7 0 13 -3 13 -7 0 -10 106 -77 115 -74 4 2 11 -1 14 -6 6 -9 77
-54 151 -96 19 -11 98 -51 175 -89 77 -38 152 -76 168 -84 15 -8 27 -12 27 -8
0 3 6 2 13 -3 6 -5 39 -20 72 -33 33 -13 64 -27 70 -32 5 -4 15 -8 23 -8 8 0
28 -6 45 -14 47 -21 246 -87 268 -89 11 -1 19 -4 19 -7 0 -4 6 -7 13 -8 6 0
66 -15 132 -32 66 -18 127 -33 135 -35 50 -11 160 -34 185 -39 17 -3 41 -7 55
-10 14 -3 42 -7 63 -10 20 -3 54 -9 75 -12 20 -4 51 -8 67 -9 17 -2 50 -6 75
-9 202 -24 339 -31 635 -31 255 0 515 9 571 19 11 2 49 7 86 10 37 4 77 9 90
11 13 2 59 9 104 15 44 6 91 13 105 15 27 6 70 14 114 21 53 9 80 14 100 19
11 2 38 9 60 14 22 5 51 12 65 15 14 2 61 14 105 26 44 12 86 24 95 25 8 2 16
4 18 5 1 2 5 3 10 4 36 7 109 31 120 39 6 5 12 7 12 3 0 -3 26 4 58 15 86 31
204 75 227 84 11 4 26 9 34 11 8 1 18 9 22 16 5 7 9 10 9 6 0 -8 125 44 220
93 36 18 67 33 70 34 3 0 30 14 60 29 30 16 73 38 95 50 22 11 42 22 45 25 3
3 21 15 40 25 19 10 54 32 78 48 24 15 45 28 47 28 10 0 230 154 325 227 181
139 448 397 605 587 22 26 55 64 72 84 18 21 33 41 33 46 0 5 8 16 18 25 9 9
22 23 27 32 30 48 65 98 77 110 30 31 162 252 225 379 21 41 41 77 46 78 4 2
7 8 7 13 0 5 15 42 34 82 49 105 76 165 76 172 0 3 9 24 19 48 30 66 119 324
136 397 2 8 11 37 19 65 8 27 13 51 11 54 -3 2 -1 9 5 16 5 6 11 28 14 48 2
20 7 40 10 45 3 5 8 22 10 38 6 29 11 52 21 96 3 13 8 37 10 53 5 30 9 50 19
95 3 14 8 42 11 64 5 37 4 38 -20 34 -14 -3 -25 -2 -25 1 0 3 -11 6 -25 6 -14
0 -25 -3 -25 -7 0 -4 -11 -3 -25 2 -15 6 -26 6 -30 0 -4 -7 -13 -7 -24 0 -12
6 -22 5 -28 -1 -7 -7 -13 -7 -17 -1 -4 7 -17 7 -36 2 -17 -5 -30 -6 -30 -2 0
4 -11 7 -25 7 -14 0 -25 -3 -25 -7 0 -4 -11 -3 -25 2 -15 6 -26 6 -30 0 -4 -7
-13 -7 -24 0 -12 6 -22 5 -28 -1 -7 -7 -13 -7 -17 -1 -4 7 -17 7 -36 2 -17 -5
-30 -6 -30 -2 0 4 -11 7 -25 7 -14 0 -25 -3 -25 -7 0 -4 -11 -3 -25 2 -15 6
-26 6 -30 0 -4 -7 -13 -7 -24 0 -12 6 -22 5 -28 -1 -7 -7 -13 -7 -17 -1 -4 7
-17 7 -36 2 -17 -5 -30 -6 -30 -2 0 4 -11 7 -25 7 -14 0 -25 -3 -25 -7 0 -4
-11 -3 -25 2 -15 6 -26 6 -30 0 -4 -7 -13 -6 -25 0 -13 7 -21 7 -25 0 -4 -6
-11 -7 -17 -4 -16 10 -78 11 -78 1 0 -4 -9 -3 -19 3 -13 7 -22 7 -26 0 -4 -6
-13 -7 -23 -2 -18 8 -80 7 -89 -2 -3 -2 -15 -1 -28 4 -14 5 -26 5 -33 -2 -6
-6 -12 -6 -16 1 -5 8 -13 8 -27 1 -12 -7 -19 -7 -19 -1 0 7 -8 7 -22 2 -13 -5
-33 -5 -45 0 -13 5 -25 4 -29 -2 -4 -7 -10 -7 -18 0 -6 5 -18 6 -25 2 -7 -5
-22 -6 -34 -3 -13 3 -18 1 -13 -6 3 -6 2 -13 -3 -16 -4 -3 -9 -16 -9 -28 0
-24 -20 -141 -37 -218 -4 -14 -8 -36 -11 -50 -3 -14 -19 -70 -35 -125 -17 -55
-35 -118 -41 -140 -6 -22 -14 -42 -18 -45 -8 -6 -24 -61 -22 -72 1 -5 -2 -8
-8 -8 -5 0 -10 -5 -10 -10 0 -19 -73 -164 -128 -255 -88 -146 -186 -268 -327
-408 -134 -133 -148 -146 -227 -208 -51 -40 -86 -69 -104 -86 -7 -7 -17 -13
-23 -13 -5 0 -14 -6 -18 -13 -4 -6 -17 -18 -28 -24 -11 -7 -60 -38 -110 -69
-103 -65 -302 -170 -390 -205 -33 -13 -62 -26 -65 -29 -3 -3 -9 -6 -15 -7 -5
-1 -47 -16 -92 -32 -46 -17 -83 -29 -83 -26 0 2 -15 -2 -34 -10 -18 -8 -36
-11 -40 -8 -3 4 -6 2 -6 -4 0 -5 -6 -10 -12 -11 -7 0 -56 -12 -109 -26 -94
-24 -224 -53 -278 -61 -14 -2 -37 -6 -51 -9 -14 -3 -47 -7 -75 -10 -27 -3 -50
-5 -50 -6 0 -1 -18 -3 -40 -5 -22 -1 -58 -6 -79 -9 -106 -17 -540 -24 -726
-12 -214 14 -399 39 -545 72 -33 7 -73 16 -90 18 -16 3 -55 13 -85 22 -30 9
-66 18 -80 21 -14 2 -34 8 -45 13 -11 5 -44 16 -74 24 -91 26 -280 106 -416
176 -120 61 -309 174 -340 203 -8 7 -30 23 -50 37 -44 31 -198 150 -205 159
-3 3 -23 19 -45 36 -22 16 -47 36 -55 44 -8 9 -42 39 -75 66 -93 78 -375 363
-375 380 0 3 -13 19 -30 35 -17 16 -30 32 -30 35 0 5 -23 36 -100 137 -11 14
-20 31 -20 37 0 6 -4 11 -10 11 -5 0 -10 7 -10 15 0 8 -3 15 -8 15 -4 0 -12 9
-17 19 -6 11 -36 65 -67 121 -32 55 -58 105 -58 110 0 6 -5 10 -11 10 -5 0 -8
4 -4 9 3 5 0 15 -7 23 -7 7 -14 20 -16 28 -2 8 -14 37 -27 65 -20 43 -44 98
-50 115 -1 3 -7 18 -13 33 -7 16 -12 31 -12 34 0 3 -6 19 -14 36 -23 52 -119
344 -141 432 -5 17 -10 36 -12 42 -1 7 -5 21 -7 30 -3 10 -5 18 -6 18 -2 0 -5
13 -13 51 -3 11 -12 49 -20 85 -26 106 -50 221 -61 282 -2 12 -7 38 -11 57 -3
19 -8 49 -10 65 -2 17 -4 30 -5 30 -3 0 -13 64 -25 165 -4 30 -9 66 -11 80 -3
14 -7 48 -9 75 -3 28 -7 68 -10 90 -2 22 -7 72 -10 110 -3 39 -8 90 -10 115
-4 52 -15 292 -19 427 -2 51 0 97 4 103 8 13 100 21 100 9 0 -4 12 -4 28 -1
15 4 81 6 147 5 183 -4 205 -4 280 0 39 1 76 -1 83 -6 6 -5 12 -6 12 -1 0 5
53 8 117 7 135 -3 157 -3 236 0 31 1 57 -1 57 -6 0 -4 5 -5 11 -1 15 9 309 11
309 2 0 -4 12 -3 28 0 15 4 81 6 147 5 183 -4 205 -4 280 0 39 1 76 -1 83 -6
6 -5 12 -6 12 -1 0 5 53 8 117 7 135 -3 157 -3 236 0 31 1 57 -1 57 -5 0 -3
12 -3 28 0 15 4 81 6 147 5 183 -4 205 -4 280 0 39 1 76 -1 83 -6 6 -5 12 -6
12 -1 0 5 53 8 117 7 135 -3 157 -3 236 0 31 1 57 -1 57 -5 0 -3 12 -3 28 0
15 4 81 6 147 5 183 -4 205 -4 280 0 39 1 76 -1 83 -6 6 -5 12 -6 12 -1 0 5
53 8 117 7 135 -3 157 -3 236 0 31 1 57 -1 57 -5 0 -3 12 -3 28 0 15 4 81 6
147 5 183 -4 205 -4 280 0 39 1 76 -1 83 -6 6 -5 12 -6 12 -1 0 5 53 8 117 7
149 -3 193 -3 273 0 36 1 71 -2 78 -7 6 -5 12 -5 12 0 0 10 251 11 268 0 6 -3
14 -2 17 4 5 8 11 7 21 -1 8 -6 14 -8 14 -3 0 5 28 8 62 7 74 -3 83 -3 168 0
36 1 71 -2 78 -7 6 -5 12 -5 12 0 0 10 251 11 268 0 6 -3 14 -2 17 4 5 8 11 7
21 -1 8 -6 14 -8 14 -3 0 5 55 8 122 6 162 -3 181 -3 263 1 39 1 76 -1 83 -6
6 -5 12 -6 12 -1 0 5 53 8 117 7 135 -3 157 -3 236 0 31 1 57 -1 57 -5 0 -3
12 -3 28 0 15 4 81 6 147 5 183 -4 205 -4 280 0 39 1 76 -1 83 -6 6 -5 12 -6
12 -1 0 5 55 8 122 6 68 -1 130 -2 138 -2 8 0 56 1 107 1 l91 1 5 42 c6 51 0
832 -7 901 -2 28 -7 97 -11 155 -3 58 -8 123 -10 145 -3 22 -7 67 -10 100 -2
33 -7 83 -10 110 -4 28 -8 68 -10 90 -2 22 -4 40 -5 40 -1 0 -3 18 -5 40 -2
22 -7 58 -11 80 -3 22 -8 58 -10 80 -2 22 -6 51 -10 65 -4 14 -7 28 -6 32 1 5
-21 139 -33 203 -11 60 -25 133 -29 155 -3 14 -5 25 -6 25 -1 0 -3 9 -4 20 -2
11 -9 47 -16 80 -7 33 -14 67 -15 75 -2 8 -4 15 -5 15 -1 0 -3 9 -5 20 -4 19
-17 74 -28 120 -3 11 -12 47 -20 80 -25 99 -65 231 -117 385 -80 236 -94 275
-105 282 -5 4 -7 8 -3 8 7 0 -54 153 -97 245 -13 28 -25 57 -27 65 -2 8 -5 17
-8 20 -3 3 -42 79 -88 170 -45 91 -95 188 -111 216 -70 124 -221 366 -249 399
-5 6 -26 35 -47 65 -21 30 -41 57 -45 60 -3 3 -17 21 -30 40 -24 34 -34 47
-73 93 -61 72 -107 125 -142 162 -22 24 -49 54 -61 67 -34 38 -227 221 -268
253 -20 17 -50 42 -66 58 -16 15 -33 27 -38 27 -6 0 -12 3 -14 8 -6 13 -105
92 -116 92 -6 0 -12 4 -14 8 -7 18 -394 272 -414 272 -3 0 -19 9 -35 21 -16
11 -29 18 -29 15 0 -4 -17 4 -37 17 -21 12 -58 32 -83 44 -86 40 -161 73 -166
73 -3 0 -20 6 -37 14 -18 7 -48 21 -67 29 -112 49 -548 171 -685 192 -71 10
-94 14 -123 21 -28 6 -70 12 -132 18 -19 2 -48 6 -65 9 -16 3 -68 9 -115 13
-47 3 -103 9 -125 11 -47 5 -702 12 -707 8z m662 -1389 c30 -3 73 -8 95 -11
22 -2 60 -7 85 -10 42 -5 124 -19 195 -32 34 -6 41 -7 75 -16 14 -4 36 -9 50
-11 40 -8 144 -37 155 -44 6 -4 19 -8 30 -9 55 -9 429 -171 445 -193 3 -4 16
-13 30 -20 43 -23 205 -132 208 -141 2 -5 10 -9 17 -9 7 0 15 -3 17 -7 2 -5
26 -26 53 -48 28 -21 64 -51 80 -66 92 -82 141 -127 162 -150 13 -14 46 -50
73 -80 74 -80 72 -77 139 -164 34 -44 66 -85 71 -92 6 -7 10 -16 10 -22 0 -5
3 -11 8 -13 7 -3 30 -36 86 -125 50 -80 103 -178 228 -423 189 -369 292 -654
334 -925 3 -16 7 -39 8 -50 2 -11 7 -45 11 -75 4 -30 8 -64 10 -75 1 -11 6
-47 10 -80 4 -33 9 -73 11 -90 2 -16 6 -64 10 -105 3 -41 7 -86 10 -100 7 -43
18 -250 15 -277 -1 -10 -74 -12 -323 -9 -178 3 -325 5 -328 6 -3 1 -9 1 -15 0
-16 -4 -1788 15 -2040 21 -5 0 -19 0 -30 -1 -11 -1 -245 1 -520 4 -275 3 -698
8 -940 11 -242 2 -658 7 -925 10 -267 3 -700 8 -963 10 -264 2 -481 6 -484 8
-2 3 -18 1 -34 -3 -16 -5 -29 -5 -29 -1 0 4 -12 7 -27 6 -30 0 -31 4 -18 80 3
22 7 50 8 63 1 12 5 22 8 22 3 0 6 6 6 13 1 13 9 56 19 97 3 14 9 41 14 60 4
19 18 69 30 110 12 41 23 80 24 85 6 27 92 280 121 355 39 101 50 132 47 143
-1 4 3 7 8 7 5 0 9 3 8 8 -1 4 4 18 12 32 7 14 12 25 11 25 -1 0 3 14 10 30 7
17 14 39 16 49 2 11 7 24 12 30 4 6 30 60 56 120 27 60 61 132 75 160 78 149
114 211 121 214 5 2 9 8 9 14 0 24 206 328 295 437 38 46 150 176 170 197 96
101 154 158 215 214 40 36 79 72 88 80 8 8 40 35 71 60 31 25 63 51 71 57 46
39 162 123 170 123 6 0 10 5 10 10 0 6 6 10 13 10 6 0 30 14 51 30 22 17 46
30 53 30 7 0 13 4 13 9 0 10 321 172 385 194 22 8 85 31 140 51 55 21 107 39
115 41 8 2 69 18 134 35 66 17 133 33 150 36 17 2 38 7 46 9 8 2 29 7 45 10
17 3 41 7 55 9 103 19 227 33 360 42 52 3 96 8 98 9 5 5 527 -3 582 -9z"/>
</g>
</svg>
